<svg width="36" height="36" viewBox="0 0 36 36" fill="none" xmlns="http://www.w3.org/2000/svg">
<g clip-path="url(#clip0_1045_1082)">
<path d="M35.0681 15.7627L30.8346 11.5291C29.0935 9.78809 30.1575 7.95033 32.0548 7.83873C35.1797 7.64528 36.9356 4.31202 34.3836 1.53678C31.6084 -1.00781 28.29 0.740661 28.0965 3.85816C27.9775 5.75544 26.1248 6.82684 24.3912 5.09325L20.247 0.94899C19.0044 -0.293544 16.9881 -0.293544 15.7456 0.94899L11.5492 5.14533C9.80821 6.88637 7.96301 5.80752 7.84396 3.91024C7.65051 0.785303 4.30237 -0.992934 1.52713 1.5591C-1.03234 4.34178 0.745892 7.68992 3.87083 7.88337C5.76811 8.00242 6.84696 9.85506 5.11336 11.5961L0.9319 15.7701C-0.310633 17.0126 -0.310633 19.029 0.9319 20.2715L5.07616 24.4158C6.8172 26.1494 5.78299 27.9574 3.88571 28.0764C0.760773 28.2699 -0.987703 31.5957 1.56433 34.3709C4.33957 36.9229 7.65051 35.1819 7.84396 32.057C7.96301 30.1597 9.77844 29.118 11.5195 30.8516L15.7009 35.0331C16.9658 36.298 19.0342 36.298 20.2991 35.0405L23.2305 32.1091L24.488 30.8516C26.1323 29.1329 25.0683 27.3249 23.1933 27.2059C20.0684 27.0124 18.2976 23.6643 20.8496 20.8891C23.6249 18.337 26.973 20.1153 27.1665 23.2402C27.2855 25.1152 29.0861 26.1717 30.8048 24.5274L31.9432 23.389L35.0086 20.3236C35.016 20.3161 35.016 20.3161 35.0235 20.3087L35.0681 20.2641C36.3106 19.0215 36.3106 17.0052 35.0681 15.7627Z" fill="#9394A1"/>
</g>
<defs>
<clipPath id="clip0_1045_1082">
<rect width="36" height="36" fill="white"/>
</clipPath>
</defs>
</svg>
