<svg width="36" height="36" viewBox="0 0 36 36" fill="none" xmlns="http://www.w3.org/2000/svg">
<g clip-path="url(#clip0_1045_1065)">
<path d="M15.7833 24.6631L11.7612 14.5898L10.3223 18.9159H2.13965C4.33252 22.3278 8.13599 25.5858 12.9373 29.6849C14.3103 30.8572 15.7709 32.1038 17.3057 33.4496L17.9998 34.0586L18.6941 33.4496C20.2287 32.1038 21.6893 30.8572 23.0623 29.6849C27.8636 25.5858 31.6671 22.3275 33.86 18.9159H18.6518L15.7833 24.6631Z" fill="#9394A1"/>
<path d="M26.512 2.00781C22.1922 2.02322 19.4421 4.97387 18.0001 7.6807C16.5653 4.99038 13.8267 2.00781 9.5604 2.00781C9.53568 2.00781 9.51206 2.00781 9.48844 2.00781C4.46906 2.04799 0.268432 6.33802 0.0129997 11.7745C-0.0721444 13.5831 0.263763 15.2274 0.938324 16.8026H8.80235L11.5822 8.44739L15.9978 19.5083L17.3481 16.8026H35.0616C35.7365 15.2274 36.0724 13.5831 35.9869 11.7745C35.7318 6.33802 31.5312 2.04799 26.512 2.00781Z" fill="#9394A1"/>
</g>
<defs>
<clipPath id="clip0_1045_1065">
<rect width="36" height="36" fill="white"/>
</clipPath>
</defs>
</svg>
