<svg width="36" height="36" viewBox="0 0 36 36" fill="none" xmlns="http://www.w3.org/2000/svg">
<path d="M26.9031 16.0453C26.4483 16.5029 26.1 17.0551 25.8831 17.6625C25.6661 18.2701 25.5858 18.918 25.6479 19.5601L25.6263 19.5385C25.6901 20.2944 25.5881 21.0549 25.3276 21.7674C25.0671 22.4797 24.6543 23.1266 24.118 23.663C23.5816 24.1993 22.9347 24.6122 22.2222 24.8726C21.5099 25.1331 20.7492 25.2351 19.9935 25.1713L20.0151 25.1929C19.111 25.1088 18.2029 25.3055 17.4147 25.7563C16.6265 26.2071 15.9965 26.8901 15.6107 27.7121C15.2249 28.5341 15.1019 29.4549 15.2586 30.3494C15.4155 31.2438 15.8442 32.0681 16.4866 32.7098C17.1289 33.3516 17.9536 33.7796 18.8481 33.9355C19.7427 34.0915 20.6634 33.9677 21.4851 33.5811C22.3067 33.1945 22.989 32.564 23.4391 31.7754C23.8893 30.9867 24.0852 30.0786 24.0003 29.1745L24.0231 29.1961C23.9592 28.4403 24.0611 27.6797 24.3216 26.9672C24.5821 26.2549 24.9951 25.608 25.5313 25.0716C26.0677 24.5353 26.7147 24.1224 27.427 23.862C28.1394 23.6015 28.9 23.4995 29.6559 23.5633L29.6331 23.5417C30.3715 23.6081 31.1149 23.487 31.7943 23.1896C32.4735 22.8923 33.0667 22.4282 33.5189 21.8406C33.9711 21.2529 34.2677 20.5605 34.381 19.8278C34.4944 19.095 34.4209 18.3455 34.1675 17.6485C33.9141 16.9517 33.4888 16.3301 32.9311 15.8413C32.3735 15.3525 31.7015 15.0125 30.9774 14.8526C30.2533 14.6928 29.5006 14.7182 28.789 14.9267C28.0774 15.1352 27.43 15.5199 26.9067 16.0453H26.9031Z" fill="#9394A1"/>
<path d="M18.0494 22.3634L18.0266 22.3418C18.669 22.4065 19.3177 22.3276 19.926 22.1109C20.5341 21.8942 21.0866 21.5451 21.5433 21.0888C21.9999 20.6324 22.3496 20.0802 22.5667 19.4721C22.7839 18.8641 22.8632 18.2155 22.799 17.573L22.8218 17.5946C22.758 16.8387 22.86 16.0782 23.1204 15.3657C23.3809 14.6534 23.7938 14.0065 24.3301 13.4701C24.8665 12.9338 25.5134 12.5209 26.2257 12.2605C26.9382 11.9999 27.6987 11.898 28.4546 11.9618L28.4318 11.9402C29.336 12.0252 30.2443 11.829 31.0329 11.3787C31.8217 10.9284 32.4522 10.2458 32.8386 9.42391C33.225 8.60208 33.3485 7.68104 33.1922 6.78643C33.036 5.89182 32.6076 5.0672 31.9653 4.42503C31.3232 3.78288 30.4986 3.35443 29.604 3.19817C28.7094 3.04189 27.7884 3.16538 26.9665 3.55181C26.1446 3.93822 25.4621 4.56876 25.0117 5.35741C24.5613 6.14605 24.3653 7.05441 24.4502 7.95859L24.4286 7.93579C24.4926 8.69166 24.3908 9.45239 24.1304 10.1649C23.87 10.8773 23.4571 11.5243 22.9208 12.0608C22.3844 12.5971 21.7374 13.01 21.0249 13.2704C20.3124 13.5308 19.5517 13.6326 18.7958 13.5686L18.8174 13.5914C18.1751 13.5267 17.5262 13.6056 16.9181 13.8223C16.3099 14.0389 15.7574 14.3881 15.3007 14.8444C14.844 15.3008 14.4944 15.853 14.2772 16.4611C14.0601 17.0691 13.9808 17.7177 14.045 18.3602L14.0234 18.3386C14.087 19.0944 13.9849 19.8549 13.7244 20.5672C13.4637 21.2794 13.0509 21.9264 12.5147 22.4626C11.9783 22.9989 11.3315 23.4117 10.6192 23.6724C9.90693 23.9329 9.14639 24.035 8.39061 23.9714L8.41221 23.993C7.50804 23.908 6.59967 24.1041 5.81102 24.5545C5.02238 25.0048 4.39184 25.6874 4.00543 26.5093C3.61901 27.3312 3.4955 28.2522 3.65178 29.1468C3.80805 30.0414 4.2365 30.866 4.87866 31.5081C5.52083 32.1504 6.34544 32.5788 7.24005 32.735C8.13467 32.8912 9.0557 32.7678 9.87755 32.3814C10.6994 31.995 11.382 31.3645 11.8323 30.5758C12.2827 29.7871 12.4788 28.8788 12.3938 27.9746L12.4166 27.9962C12.3528 27.2403 12.4548 26.4798 12.7153 25.7673C12.9757 25.055 13.3886 24.4081 13.9249 23.8717C14.4613 23.3354 15.1082 22.9225 15.8205 22.6621C16.533 22.4016 17.2935 22.2996 18.0494 22.3634Z" fill="#9394A1"/>
<path d="M10.0083 19.9546C10.4631 19.4972 10.8113 18.945 11.0281 18.3374C11.2448 17.7298 11.3248 17.0818 11.2623 16.4398L11.285 16.4614C11.2212 15.7054 11.3232 14.9445 11.5838 14.2319C11.8445 13.5194 12.2575 12.8723 12.7942 12.3359C13.3308 11.7996 13.978 11.3868 14.6907 11.1264C15.4033 10.8661 16.1643 10.7645 16.9203 10.8286L16.8975 10.807C17.8013 10.8917 18.7093 10.6955 19.4976 10.2452C20.2859 9.79496 20.916 9.11249 21.3023 8.29091C21.6885 7.46931 21.8118 6.54861 21.6556 5.65434C21.4993 4.76006 21.0709 3.93576 20.4291 3.29383C19.7872 2.6519 18.9628 2.2236 18.0685 2.06733C17.1743 1.91106 16.2535 2.03444 15.432 2.42063C14.6104 2.80681 13.9279 3.43701 13.4777 4.22529C13.0273 5.01357 12.8311 5.92157 12.9159 6.82543L12.8943 6.80383C12.9581 7.55965 12.8561 8.32029 12.5956 9.03266C12.3351 9.74503 11.9223 10.392 11.3859 10.9283C10.8496 11.4647 10.2026 11.8775 9.49027 12.1379C8.77791 12.3985 8.01727 12.5005 7.26145 12.4366L7.28305 12.4582C6.54454 12.392 5.80125 12.5133 5.12207 12.8108C4.44289 13.1083 3.84979 13.5724 3.39774 14.1602C2.94569 14.7478 2.64931 15.4402 2.53606 16.1729C2.42281 16.9058 2.49636 17.6553 2.74989 18.352C3.00341 19.0489 3.42873 19.6703 3.9864 20.159C4.54408 20.6477 5.21608 20.9877 5.94013 21.1476C6.66418 21.3073 7.41685 21.2817 8.12842 21.0733C8.83997 20.8647 9.48737 20.48 10.0106 19.9546H10.0083Z" fill="#9394A1"/>
</svg>
