<svg width="38" height="36" viewBox="0 0 38 36" fill="none" xmlns="http://www.w3.org/2000/svg">
<path d="M1.99854 21.9676C1.99854 20.2726 2.33465 18.5941 2.98774 17.0281C3.64084 15.4621 4.59805 14.0392 5.80479 12.8406C7.01153 11.642 8.44408 10.6912 10.0207 10.0426C11.5975 9.39396 13.2873 9.06006 14.9939 9.06006V21.9676H1.99854Z" fill="#9394A1"/>
<path d="M1.99854 21.9673C1.99854 23.6624 2.33465 25.3408 2.98774 26.9069C3.64084 28.4729 4.59805 29.8958 5.80479 31.0943C7.01153 32.2929 8.44408 33.2437 10.0207 33.8924C11.5975 34.541 13.2873 34.8749 14.9939 34.8749V21.9673H1.99854Z" fill="#9394A1"/>
<path d="M27.9888 21.9673C27.9888 23.6624 27.6529 25.3408 26.9999 26.9069C26.3468 28.4729 25.3897 29.8958 24.1827 31.0943C22.976 32.2929 21.5434 33.2437 19.9667 33.8924C18.3901 34.541 16.7002 34.8749 14.9937 34.8749V21.9673H27.9888Z" fill="#9394A1"/>
<path d="M36.0017 10.8165C36.0017 16.169 31.633 20.508 26.2442 20.508H16.4868V10.8165C16.4868 5.46405 20.8554 1.125 26.2442 1.125C31.633 1.125 36.0017 5.46405 36.0017 10.8165Z" fill="#9394A1"/>
</svg>
