<svg width="36" height="36" viewBox="0 0 36 36" fill="none" xmlns="http://www.w3.org/2000/svg">
<path d="M21.7244 8.0519C23.389 9.09556 24.5562 10.8616 24.7687 12.9117C25.4475 13.2288 26.201 13.4112 26.9998 13.4112C29.916 13.4112 32.2796 11.0476 32.2796 8.13187C32.2796 5.21566 29.916 2.85205 26.9998 2.85205C24.1114 2.85295 21.7685 5.17433 21.7244 8.0519ZM18.2655 18.8622C21.1817 18.8622 23.5453 16.4982 23.5453 13.5824C23.5453 10.6667 21.1813 8.30304 18.2655 8.30304C15.3498 8.30304 12.9848 10.6671 12.9848 13.5829C12.9848 16.4986 15.3498 18.8622 18.2655 18.8622ZM20.5051 19.2221H16.025C12.2974 19.2221 9.26484 22.2551 9.26484 25.9827V31.4616L9.27877 31.5474L9.65616 31.6655C13.2135 32.777 16.304 33.1477 18.8478 33.1477C23.8162 33.1477 26.6961 31.7311 26.8735 31.6408L27.2262 31.4625H27.2639V25.9827C27.2653 22.2551 24.2327 19.2221 20.5051 19.2221ZM29.2403 13.7716H24.7948C24.7467 15.5502 23.9874 17.1519 22.7865 18.3038C26.0999 19.289 28.5242 22.3616 28.5242 25.9908V27.6792C32.9135 27.5183 35.4429 26.2743 35.6096 26.1907L35.9623 26.0119H36V20.5313C36 16.8041 32.9674 13.7716 29.2403 13.7716ZM9.00112 13.4121C10.034 13.4121 10.995 13.1107 11.8091 12.5972C12.0678 10.9093 12.9727 9.43431 14.2652 8.42974C14.2706 8.3309 14.28 8.23296 14.28 8.13322C14.28 5.21701 11.916 2.8534 9.00112 2.8534C6.08446 2.8534 3.7213 5.21701 3.7213 8.13322C3.7213 11.0481 6.08446 13.4121 9.00112 13.4121ZM13.7427 18.3038C12.5477 17.1577 11.7911 15.5646 11.7358 13.7967C11.5709 13.7846 11.4079 13.7716 11.2398 13.7716H6.76016C3.03257 13.7716 0 16.8041 0 20.5313V26.011L0.0139274 26.0955L0.391314 26.2145C3.24508 27.1054 5.79199 27.5161 8.00419 27.6455V25.9908C8.00509 22.3616 10.4285 19.2899 13.7427 18.3038Z" fill="#9394A1"/>
</svg>
