<svg width="36" height="36" viewBox="0 0 36 36" fill="none" xmlns="http://www.w3.org/2000/svg">
<path d="M15.2887 30.3975C15.2213 30.4312 15.1537 30.465 15.075 30.4988C14.9288 30.5662 14.7825 30.5888 14.625 30.5888C14.4675 30.5888 14.3212 30.555 14.175 30.4988C8.64 28.08 5.0625 22.6125 5.0625 16.5712V10.4062C5.0625 9.9675 5.32125 9.5625 5.72625 9.3825L14.1637 5.54625C14.4563 5.41125 14.7937 5.41125 15.0975 5.54625L23.535 9.3825C23.94 9.5625 24.1987 9.9675 24.1987 10.4062V12.4313C24.57 12.3975 24.9412 12.375 25.3237 12.375C26.2913 12.375 27.2362 12.51 28.1362 12.7238V7.875C28.1362 7.43625 27.8775 7.03125 27.4725 6.85125L15.0863 1.22625C14.7937 1.09125 14.4563 1.09125 14.1525 1.22625L1.78875 6.85125C1.38375 7.03125 1.125 7.43625 1.125 7.875V16.5712C1.125 24.255 5.6925 31.1737 12.7688 34.1775L14.1862 34.785C14.3325 34.8413 14.4788 34.875 14.625 34.875C14.7712 34.875 14.9288 34.8413 15.0638 34.785L16.4812 34.1775C16.9987 33.9525 17.505 33.705 18 33.4463C16.9312 32.5912 16.0087 31.5675 15.2887 30.3975Z" fill="#9394A1"/>
<path d="M21.9375 12.8701V11.1376L14.625 7.81885L7.3125 11.1376V16.5713C7.3125 21.3638 9.95625 25.7288 14.13 27.9676C13.725 26.7751 13.5 25.5038 13.5 24.1876C13.5 18.8438 17.0662 14.3326 21.9375 12.8701Z" fill="#9394A1"/>
<path d="M25.3125 14.625C20.0363 14.625 15.75 18.9113 15.75 24.1875C15.75 29.4637 20.0363 33.75 25.3125 33.75C30.5887 33.75 34.875 29.4637 34.875 24.1875C34.875 18.9113 30.5887 14.625 25.3125 14.625ZM29.8463 22.6462L25.2225 27.315C25.0087 27.5288 24.7275 27.6525 24.4237 27.6525C24.1312 27.6525 23.8387 27.5288 23.625 27.3263L20.7787 24.48C20.34 24.0413 20.34 23.3325 20.7787 22.8825C21.2175 22.4438 21.9262 22.4438 22.3762 22.8825L24.4237 24.93L28.2488 21.0712C28.6875 20.6325 29.3963 20.6212 29.835 21.0712C30.2738 21.51 30.285 22.2187 29.835 22.6575L29.8463 22.6462Z" fill="#9394A1"/>
</svg>
