<svg width="36" height="36" viewBox="0 0 36 36" fill="none" xmlns="http://www.w3.org/2000/svg">
<g clip-path="url(#clip0_1122_2951)">
<path d="M15.5831 2.39134L17.9705 0L35.9408 18L17.9705 36L15.583 33.6086L31.166 18L15.5831 2.39134Z" fill="#9394A1"/>
<path d="M12.4658 5.51293L14.8532 3.12158L29.7069 17.9999L14.8532 32.8781L12.4658 30.4868L24.9321 17.9999L12.4658 5.51293Z" fill="#9394A1"/>
<path d="M0 18.0002L11.7371 6.24365L23.4742 18.0002L11.7371 29.7567L9.34976 27.3654L18.6994 18.0002L11.7371 11.0264L2.3874 20.3915L0 18.0002Z" fill="#9394A1"/>
<path d="M11.7383 12.4863L9.35098 14.8776L12.4676 17.9994L6.23438 24.2428L8.62177 26.6341L17.2424 17.9994L11.7383 12.4863Z" fill="#9394A1"/>
<path d="M5.50459 23.5136L3.11719 21.1223L8.59619 15.6343L10.9836 18.0256L5.50459 23.5136Z" fill="#9394A1"/>
</g>
<defs>
<clipPath id="clip0_1122_2951">
<rect width="36" height="36" fill="white"/>
</clipPath>
</defs>
</svg>
