<svg width="38" height="36" viewBox="0 0 38 36" fill="none" xmlns="http://www.w3.org/2000/svg">
<path d="M18.9998 10.4492C18.9998 14.5633 15.642 17.8985 11.4999 17.8985H4V10.4492C4 6.33513 7.35782 3 11.4999 3C15.642 3 18.9998 6.33513 18.9998 10.4492Z" fill="#9394A1"/>
<path d="M19 25.3477C19 21.2336 22.3578 17.8984 26.4999 17.8984H33.9998V25.3477C33.9998 29.4618 30.642 32.7969 26.4999 32.7969C22.3578 32.7969 19 29.4618 19 25.3477Z" fill="#9394A1"/>
<path d="M4 25.3477C4 29.4618 7.35782 32.7969 11.4999 32.7969H18.9998V25.3477C18.9998 21.2336 15.642 17.8984 11.4999 17.8984C7.35782 17.8984 4 21.2336 4 25.3477Z" fill="#9394A1"/>
<path d="M33.9998 10.4492C33.9998 6.33513 30.642 3 26.4999 3H19V10.4492C19 14.5633 22.3578 17.8985 26.4999 17.8985C30.642 17.8985 33.9998 14.5633 33.9998 10.4492Z" fill="#9394A1"/>
</svg>
